<svg 
 xmlns="http://www.w3.org/2000/svg"
 xmlns:xlink="http://www.w3.org/1999/xlink"
 width="28px" height="27px">
<path fill-rule="evenodd"
 d="M6.543,9.298 L0.651,9.298 L0.651,26.990 L6.543,26.990 L6.543,9.298 ZM6.918,3.835 C6.900,2.104 5.650,0.782 3.633,0.782 C1.633,0.782 0.312,2.104 0.312,3.835 C0.312,5.531 1.580,6.888 3.562,6.888 L3.597,6.888 L3.597,6.888 C5.650,6.888 6.936,5.531 6.918,3.835 ZM27.734,16.850 C27.734,11.423 24.842,8.887 20.968,8.887 C17.790,8.887 16.398,10.655 15.630,11.869 L15.666,11.869 L15.666,9.298 L9.792,9.298 C9.792,9.298 9.864,10.959 9.792,26.990 L9.792,26.990 L15.666,26.990 L15.666,17.118 C15.666,16.582 15.719,16.064 15.862,15.671 C16.291,14.618 17.255,13.529 18.879,13.529 C21.004,13.529 21.861,15.154 21.861,17.528 L21.861,26.990 L27.734,26.990 L27.734,16.850 Z"/>
</svg>