<svg xmlns="http://www.w3.org/2000/svg" xmlns:xlink="http://www.w3.org/1999/xlink"
 width="29px" height="24px"><path fill-rule="evenodd" d="M28.234,3.424 C27.199,3.871 26.074,4.192 24.913,4.316 C26.109,3.603 27.020,2.478 27.448,1.139 C26.342,1.799 25.092,2.282 23.789,2.531 C22.735,1.407 21.236,0.710 19.575,0.710 C16.380,0.710 13.809,3.299 13.809,6.477 C13.809,6.923 13.862,7.369 13.952,7.798 C9.167,7.548 4.900,5.263 2.062,1.764 C1.562,2.621 1.276,3.603 1.276,4.674 C1.276,6.673 2.294,8.441 3.847,9.476 C2.901,9.441 2.008,9.173 1.240,8.744 C1.240,8.762 1.240,8.798 1.240,8.816 C1.240,11.619 3.222,13.940 5.864,14.475 C5.382,14.600 4.865,14.672 4.347,14.672 C3.972,14.672 3.615,14.636 3.258,14.582 C3.990,16.868 6.114,18.527 8.649,18.581 C6.668,20.134 4.186,21.045 1.491,21.045 C1.008,21.045 0.562,21.027 0.098,20.974 C2.651,22.616 5.686,23.562 8.953,23.562 C19.557,23.562 25.360,14.778 25.360,7.156 C25.360,6.905 25.360,6.655 25.342,6.406 C26.466,5.584 27.448,4.567 28.234,3.424 Z"/></svg>